<svg width="30" height="30" viewBox="0 0 30 30" fill="none" xmlns="http://www.w3.org/2000/svg">
<path fill-rule="evenodd" clip-rule="evenodd" d="M30 7.5C30 3.3585 26.6415 0 22.5 0C17.919 0 12.081 0 7.5 0C3.3585 0 0 3.3585 0 7.5C0 12.081 0 17.919 0 22.5C0 26.6415 3.3585 30 7.5 30C12.081 30 17.919 30 22.5 30C26.6415 30 30 26.6415 30 22.5C30 17.919 30 12.081 30 7.5Z" fill="#FFE812"/>
<path d="M15 5.5C9.20098 5.5 4.5 9.51671 4.5 14.4714C4.5 17.6747 6.46534 20.4855 9.42168 22.0727C9.26083 22.6738 8.38815 25.9396 8.35337 26.1962C8.35337 26.1962 8.3325 26.3889 8.44767 26.4624C8.56291 26.536 8.69836 26.4789 8.69836 26.4789C9.02872 26.4289 12.5292 23.7643 13.1351 23.3017C13.7403 23.3945 14.3636 23.4428 15 23.4428C20.799 23.4428 25.5 19.4263 25.5 14.4714C25.5 9.51671 20.799 5.5 15 5.5Z" fill="#381F1F"/>
<path fill-rule="evenodd" clip-rule="evenodd" d="M10.1004 16.75C9.81228 16.75 9.57795 16.5323 9.57795 16.2646V13.2453H8.7627C8.47997 13.2453 8.25 13.022 8.25 12.7476C8.25 12.4733 8.48003 12.25 8.7627 12.25H11.4382C11.7209 12.25 11.9509 12.4733 11.9509 12.7476C11.9509 13.022 11.7209 13.2453 11.4382 13.2453H10.6229V16.2646C10.6229 16.5323 10.3886 16.75 10.1004 16.75ZM14.6819 16.7434C14.464 16.7434 14.2974 16.6573 14.2471 16.5189L13.9884 15.8601L12.3952 15.86L12.1363 16.5192C12.0862 16.6574 11.9196 16.7434 11.7018 16.7434C11.5872 16.7435 11.4738 16.7196 11.3696 16.6732C11.2256 16.6086 11.0871 16.4309 11.2458 15.9515L12.4956 12.7517C12.5836 12.5083 12.851 12.2576 13.1914 12.2501C13.5326 12.2575 13.8 12.5083 13.8883 12.7522L15.1375 15.9506C15.2965 16.431 15.1581 16.6089 15.014 16.6733C14.9098 16.7196 14.7965 16.7434 14.6819 16.7434ZM13.1918 13.5177L13.7136 14.9598H12.6699L13.1918 13.5177ZM15.9784 16.6759C15.7022 16.6759 15.4777 16.4668 15.4777 16.21V12.7582C15.4777 12.4779 15.7169 12.25 16.011 12.25C16.3051 12.25 16.5444 12.4779 16.5444 12.7582V15.7441H17.6546C17.9308 15.7441 18.1554 15.9531 18.1554 16.21C18.1554 16.4668 17.9308 16.6759 17.6546 16.6759H15.9784ZM18.3586 16.2351C18.3586 16.5154 18.5929 16.7434 18.8811 16.7434C19.0197 16.7432 19.1525 16.6895 19.2505 16.5942C19.3485 16.4989 19.4036 16.3697 19.4038 16.2349V15.126L19.5851 14.9496L20.8104 16.5289C20.8589 16.5919 20.9219 16.643 20.9944 16.6781C21.0668 16.7132 21.1468 16.7313 21.2277 16.7309C21.3413 16.7312 21.4517 16.6952 21.542 16.6283C21.5969 16.5883 21.6431 16.5381 21.6779 16.4805C21.7127 16.423 21.7354 16.3593 21.7447 16.2932C21.7545 16.2271 21.7507 16.1598 21.7334 16.0951C21.7162 16.0305 21.686 15.9698 21.6444 15.9166L20.3583 14.2593L21.549 13.1013C21.6308 13.0216 21.6719 12.9117 21.6643 12.7918C21.6568 12.673 21.6022 12.5586 21.5107 12.4696C21.4125 12.3743 21.2815 12.3195 21.1511 12.3195C21.0393 12.3195 20.9363 12.3597 20.8613 12.4326L19.4036 13.8506V12.7582C19.4036 12.4779 19.1693 12.25 18.8811 12.25C18.5929 12.25 18.3586 12.4779 18.3586 12.7582V16.2351Z" fill="#FFE812"/>
</svg>
