<svg width="150" height="150" viewBox="0 0 150 150" fill="none" xmlns="http://www.w3.org/2000/svg">
<rect x="0.5" y="0.5" width="149" height="149" fill="white"/>
<rect x="0.5" y="0.5" width="149" height="149" stroke="#DDDDDD"/>
<path d="M84.75 73.75H76.25V65.25C76.25 64.5625 75.6875 64 75 64C74.3125 64 73.75 64.5625 73.75 65.25V73.75H65.25C64.5625 73.75 64 74.3125 64 75C64 75.6875 64.5625 76.25 65.25 76.25H73.75V84.75C73.75 85.4375 74.3125 86 75 86C75.6875 86 76.25 85.4375 76.25 84.75V76.25H84.75C85.4375 76.25 86 75.6875 86 75C86 74.3125 85.4375 73.75 84.75 73.75Z" fill="#555555"/>
</svg>
