<svg width="330" height="330" viewBox="0 0 330 330" fill="none" xmlns="http://www.w3.org/2000/svg">
<rect width="330" height="330" fill="#D9D9D9"/>
<path d="M98.1 175.3C96.68 175.3 95.41 175.01 94.29 174.43C93.19 173.85 92.32 172.95 91.68 171.73C91.06 170.51 90.75 168.95 90.75 167.05C90.75 165.07 91.08 163.46 91.74 162.22C92.4 160.98 93.29 160.07 94.41 159.49C95.55 158.91 96.84 158.62 98.28 158.62C99.1 158.62 99.89 158.71 100.65 158.89C101.41 159.05 102.03 159.25 102.51 159.49L101.7 161.68C101.22 161.5 100.66 161.33 100.02 161.17C99.38 161.01 98.78 160.93 98.22 160.93C97.14 160.93 96.25 161.16 95.55 161.62C94.85 162.08 94.33 162.76 93.99 163.66C93.65 164.56 93.48 165.68 93.48 167.02C93.48 168.3 93.65 169.39 93.99 170.29C94.33 171.19 94.84 171.87 95.52 172.33C96.2 172.79 97.05 173.02 98.07 173.02C98.95 173.02 99.72 172.93 100.38 172.75C101.06 172.57 101.68 172.35 102.24 172.09V174.43C101.7 174.71 101.1 174.92 100.44 175.06C99.8 175.22 99.02 175.3 98.1 175.3ZM120.044 166.93C120.044 168.27 119.864 169.46 119.504 170.5C119.164 171.52 118.664 172.39 118.004 173.11C117.364 173.83 116.574 174.38 115.634 174.76C114.714 175.12 113.684 175.3 112.544 175.3C111.484 175.3 110.504 175.12 109.604 174.76C108.704 174.38 107.924 173.83 107.264 173.11C106.604 172.39 106.084 171.52 105.704 170.5C105.344 169.46 105.164 168.27 105.164 166.93C105.164 165.15 105.464 163.65 106.064 162.43C106.664 161.19 107.524 160.25 108.644 159.61C109.764 158.95 111.094 158.62 112.634 158.62C114.094 158.62 115.374 158.95 116.474 159.61C117.594 160.25 118.464 161.19 119.084 162.43C119.724 163.65 120.044 165.15 120.044 166.93ZM107.894 166.93C107.894 168.19 108.054 169.29 108.374 170.23C108.714 171.15 109.234 171.86 109.934 172.36C110.634 172.86 111.524 173.11 112.604 173.11C113.684 173.11 114.574 172.86 115.274 172.36C115.974 171.86 116.484 171.15 116.804 170.23C117.144 169.29 117.314 168.19 117.314 166.93C117.314 165.65 117.144 164.56 116.804 163.66C116.464 162.76 115.944 162.07 115.244 161.59C114.564 161.09 113.674 160.84 112.574 160.84C110.934 160.84 109.744 161.38 109.004 162.46C108.264 163.54 107.894 165.03 107.894 166.93ZM127.182 175L121.092 158.92H123.912L127.332 168.4C127.492 168.84 127.662 169.33 127.842 169.87C128.022 170.41 128.182 170.93 128.322 171.43C128.462 171.91 128.562 172.32 128.622 172.66H128.742C128.822 172.32 128.932 171.9 129.072 171.4C129.232 170.9 129.402 170.38 129.582 169.84C129.782 169.3 129.952 168.82 130.092 168.4L133.512 158.92H136.332L130.212 175H127.182ZM145.087 158.62C146.467 158.62 147.647 158.92 148.627 159.52C149.627 160.12 150.387 160.97 150.907 162.07C151.447 163.15 151.717 164.42 151.717 165.88V167.47H140.707C140.747 169.29 141.207 170.68 142.087 171.64C142.987 172.58 144.237 173.05 145.837 173.05C146.857 173.05 147.757 172.96 148.537 172.78C149.337 172.58 150.157 172.3 150.997 171.94V174.25C150.177 174.61 149.367 174.87 148.567 175.03C147.767 175.21 146.817 175.3 145.717 175.3C144.197 175.3 142.847 174.99 141.667 174.37C140.507 173.75 139.597 172.83 138.937 171.61C138.297 170.37 137.977 168.86 137.977 167.08C137.977 165.32 138.267 163.81 138.847 162.55C139.447 161.29 140.277 160.32 141.337 159.64C142.417 158.96 143.667 158.62 145.087 158.62ZM145.057 160.78C143.797 160.78 142.797 161.19 142.057 162.01C141.337 162.81 140.907 163.93 140.767 165.37H148.957C148.957 164.45 148.817 163.65 148.537 162.97C148.257 162.29 147.827 161.76 147.247 161.38C146.687 160.98 145.957 160.78 145.057 160.78ZM163.31 158.62C163.61 158.62 163.93 158.64 164.27 158.68C164.63 158.7 164.94 158.74 165.2 158.8L164.87 161.23C164.61 161.17 164.32 161.12 164 161.08C163.7 161.04 163.41 161.02 163.13 161.02C162.51 161.02 161.92 161.15 161.36 161.41C160.8 161.67 160.3 162.04 159.86 162.52C159.42 162.98 159.07 163.54 158.81 164.2C158.57 164.86 158.45 165.6 158.45 166.42V175H155.81V158.92H157.97L158.27 161.86H158.39C158.73 161.26 159.14 160.72 159.62 160.24C160.1 159.74 160.65 159.35 161.27 159.07C161.89 158.77 162.57 158.62 163.31 158.62ZM178.636 158.92V175H175.996V158.92H178.636ZM177.346 152.89C177.746 152.89 178.096 153.03 178.396 153.31C178.716 153.57 178.876 153.99 178.876 154.57C178.876 155.13 178.716 155.55 178.396 155.83C178.096 156.11 177.746 156.25 177.346 156.25C176.906 156.25 176.536 156.11 176.236 155.83C175.936 155.55 175.786 155.13 175.786 154.57C175.786 153.99 175.936 153.57 176.236 153.31C176.536 153.03 176.906 152.89 177.346 152.89ZM201.37 158.62C203.19 158.62 204.55 159.09 205.45 160.03C206.35 160.95 206.8 162.45 206.8 164.53V175H204.19V164.65C204.19 163.39 203.92 162.44 203.38 161.8C202.86 161.16 202.04 160.84 200.92 160.84C199.36 160.84 198.24 161.29 197.56 162.19C196.9 163.09 196.57 164.4 196.57 166.12V175H193.96V164.65C193.96 163.81 193.84 163.11 193.6 162.55C193.36 161.97 193 161.54 192.52 161.26C192.04 160.98 191.42 160.84 190.66 160.84C189.58 160.84 188.73 161.07 188.11 161.53C187.49 161.97 187.04 162.62 186.76 163.48C186.5 164.34 186.37 165.4 186.37 166.66V175H183.73V158.92H185.86L186.25 161.11H186.4C186.74 160.55 187.15 160.09 187.63 159.73C188.13 159.35 188.68 159.07 189.28 158.89C189.88 158.71 190.5 158.62 191.14 158.62C192.38 158.62 193.41 158.84 194.23 159.28C195.07 159.72 195.68 160.4 196.06 161.32H196.21C196.75 160.4 197.48 159.72 198.4 159.28C199.34 158.84 200.33 158.62 201.37 158.62ZM217.467 158.62C218.527 158.62 219.477 158.82 220.317 159.22C221.177 159.62 221.907 160.23 222.507 161.05H222.657L223.017 158.92H225.117V175.27C225.117 176.79 224.857 178.06 224.337 179.08C223.817 180.12 223.027 180.9 221.967 181.42C220.907 181.94 219.557 182.2 217.917 182.2C216.757 182.2 215.687 182.11 214.707 181.93C213.747 181.77 212.887 181.52 212.127 181.18V178.75C212.647 179.01 213.217 179.23 213.837 179.41C214.457 179.61 215.127 179.76 215.847 179.86C216.567 179.96 217.307 180.01 218.067 180.01C219.447 180.01 220.527 179.6 221.307 178.78C222.107 177.98 222.507 176.88 222.507 175.48V174.85C222.507 174.61 222.517 174.27 222.537 173.83C222.557 173.37 222.577 173.05 222.597 172.87H222.477C221.917 173.69 221.217 174.3 220.377 174.7C219.557 175.1 218.597 175.3 217.497 175.3C215.417 175.3 213.787 174.57 212.607 173.11C211.447 171.65 210.867 169.61 210.867 166.99C210.867 165.27 211.127 163.79 211.647 162.55C212.187 161.29 212.947 160.32 213.927 159.64C214.907 158.96 216.087 158.62 217.467 158.62ZM217.827 160.84C216.927 160.84 216.157 161.08 215.517 161.56C214.897 162.04 214.417 162.74 214.077 163.66C213.757 164.58 213.597 165.7 213.597 167.02C213.597 169 213.957 170.52 214.677 171.58C215.417 172.62 216.487 173.14 217.887 173.14C218.707 173.14 219.407 173.04 219.987 172.84C220.567 172.62 221.047 172.29 221.427 171.85C221.807 171.39 222.087 170.81 222.267 170.11C222.447 169.41 222.537 168.58 222.537 167.62V166.99C222.537 165.53 222.367 164.35 222.027 163.45C221.707 162.55 221.197 161.89 220.497 161.47C219.797 161.05 218.907 160.84 217.827 160.84Z" fill="#222222"/>
</svg>
