<svg width="30" height="30" viewBox="0 0 30 30" fill="none" xmlns="http://www.w3.org/2000/svg">
<path fill-rule="evenodd" clip-rule="evenodd" d="M30 7.5C30 3.3585 26.6415 0 22.5 0C17.919 0 12.081 0 7.5 0C3.3585 0 0 3.3585 0 7.5C0 12.081 0 17.919 0 22.5C0 26.6415 3.3585 30 7.5 30C12.081 30 17.919 30 22.5 30C26.6415 30 30 26.6415 30 22.5C30 17.919 30 12.081 30 7.5Z" fill="url(#paint0_radial_192_351)"/>
<path d="M19.437 4.50739C22.5735 4.53739 25.461 7.22989 25.4925 10.5629C25.503 13.5209 25.503 16.4789 25.4925 19.4369C25.4625 22.5614 22.77 25.4609 19.437 25.4924C16.479 25.5029 13.521 25.5029 10.563 25.4924C7.42501 25.4624 4.53901 22.7699 4.50751 19.4369C4.49701 16.4789 4.49701 13.5209 4.50751 10.5629C4.53601 7.42339 7.22251 4.53889 10.563 4.50739C13.521 4.49689 16.479 4.49689 19.437 4.50739ZM10.6035 5.92489C8.16901 5.93239 5.94901 8.04289 5.92501 10.5719C5.91601 13.5239 5.91601 16.4759 5.92501 19.4279C5.94751 21.8354 8.00701 24.0509 10.572 24.0749C13.524 24.0839 16.476 24.0839 19.428 24.0749C21.8415 24.0524 24.051 21.9929 24.075 19.4279C24.084 16.4759 24.084 13.5239 24.075 10.5719C24.0525 8.14789 21.9525 5.94889 19.428 5.92489C16.4865 5.91589 13.545 5.92489 10.6035 5.92489Z" fill="white"/>
<path d="M15.036 9.75C17.463 9.7725 19.725 11.6445 20.169 14.043C20.4855 15.753 19.8885 17.607 18.6285 18.81C17.226 20.145 15.0555 20.622 13.1955 19.941C11.1165 19.1805 9.65405 16.989 9.75155 14.769C9.87005 12.117 12.213 9.759 15 9.75C15.012 9.75 15.024 9.75 15.036 9.75ZM14.976 11.1705C13.2435 11.187 11.61 12.501 11.25 14.208C10.8855 15.9345 11.8785 17.85 13.509 18.5385C15.2895 19.2915 17.589 18.447 18.4485 16.689C19.338 14.8725 18.4995 12.405 16.6215 11.5275C16.11 11.289 15.5415 11.169 14.976 11.1705Z" fill="white"/>
<path fill-rule="evenodd" clip-rule="evenodd" d="M21.75 9.3405C21.75 9.051 21.6345 8.7735 21.4305 8.5695C21.2265 8.3655 20.949 8.25 20.6595 8.25C20.637 8.25 20.613 8.25 20.5905 8.25C20.301 8.25 20.0235 8.3655 19.8195 8.5695C19.6155 8.7735 19.5 9.051 19.5 9.3405C19.5 9.3525 19.5 9.363 19.5 9.375C19.5 9.6735 19.6185 9.96 19.83 10.17C20.04 10.3815 20.3265 10.5 20.625 10.5C21.246 10.5 21.75 9.996 21.75 9.375C21.75 9.363 21.75 9.3525 21.75 9.3405Z" fill="white"/>
<defs>
<radialGradient id="paint0_radial_192_351" cx="0" cy="0" r="1" gradientUnits="userSpaceOnUse" gradientTransform="translate(0 29.25) scale(41.8995)">
<stop stop-color="#FF8100"/>
<stop offset="0.19" stop-color="#FF7209"/>
<stop offset="0.32" stop-color="#F55E16"/>
<stop offset="0.48" stop-color="#D92938"/>
<stop offset="1" stop-color="#9100FF"/>
</radialGradient>
</defs>
</svg>
