<svg width="21" height="21" viewBox="0 0 21 21" fill="none" xmlns="http://www.w3.org/2000/svg">
<path d="M10.5 0C4.70098 0 0 4.01671 0 8.97142C0 12.1747 1.96534 14.9855 4.92168 16.5727C4.76083 17.1738 3.88815 20.4396 3.85337 20.6962C3.85337 20.6962 3.8325 20.8889 3.94767 20.9624C4.06291 21.036 4.19836 20.9789 4.19836 20.9789C4.52872 20.9289 8.02915 18.2643 8.63507 17.8017C9.24033 17.8945 9.86357 17.9428 10.5 17.9428C16.299 17.9428 21 13.9263 21 8.97142C21 4.01671 16.299 0 10.5 0Z" fill="#381F1F"/>
<path fill-rule="evenodd" clip-rule="evenodd" d="M5.60044 11.25C5.31228 11.25 5.07795 11.0323 5.07795 10.7646V7.7453H4.2627C3.97997 7.7453 3.75 7.52198 3.75 7.24762C3.75 6.97326 3.98003 6.75 4.2627 6.75H6.93818C7.22091 6.75 7.45088 6.97326 7.45088 7.24762C7.45088 7.52198 7.22085 7.7453 6.93818 7.7453H6.12294V10.7646C6.12294 11.0323 5.8886 11.25 5.60044 11.25ZM10.1819 11.2434C9.96402 11.2434 9.79739 11.1573 9.74712 11.0189L9.4884 10.3601L7.89515 10.36L7.63631 11.0192C7.58622 11.1574 7.41964 11.2434 7.20178 11.2434C7.08716 11.2435 6.97384 11.2196 6.86963 11.1732C6.72558 11.1086 6.58713 10.9309 6.74579 10.4515L7.99557 7.25169C8.08364 7.00834 8.35103 6.7576 8.69138 6.75005C9.03263 6.75754 9.30002 7.00834 9.38827 7.25219L10.6375 10.4506C10.7965 10.931 10.6581 11.1089 10.514 11.1733C10.4098 11.2196 10.2965 11.2434 10.1819 11.2434ZM8.69177 8.01773L9.21365 9.45982H8.1699L8.69177 8.01773ZM11.4784 11.1759C11.2022 11.1759 10.9777 10.9668 10.9777 10.71V7.25825C10.9777 6.97794 11.2169 6.75 11.511 6.75C11.8051 6.75 12.0444 6.97794 12.0444 7.25825V10.2441H13.1546C13.4308 10.2441 13.6554 10.4531 13.6554 10.71C13.6554 10.9668 13.4308 11.1759 13.1546 11.1759H11.4784ZM13.8586 10.7351C13.8586 11.0154 14.0929 11.2434 14.3811 11.2434C14.5197 11.2432 14.6525 11.1895 14.7505 11.0942C14.8485 10.9989 14.9036 10.8697 14.9038 10.7349V9.62599L15.0851 9.44964L16.3104 11.0289C16.3589 11.0919 16.4219 11.143 16.4944 11.1781C16.5668 11.2132 16.6468 11.2313 16.7277 11.2309C16.8413 11.2312 16.9517 11.1952 17.042 11.1283C17.0969 11.0883 17.1431 11.0381 17.1779 10.9805C17.2127 10.923 17.2354 10.8593 17.2447 10.7932C17.2545 10.7271 17.2507 10.6598 17.2334 10.5951C17.2162 10.5305 17.186 10.4698 17.1444 10.4166L15.8583 8.75931L17.049 7.60126C17.1308 7.52159 17.1719 7.41169 17.1643 7.29183C17.1568 7.17301 17.1022 7.0586 17.0107 6.96963C16.9125 6.87427 16.7815 6.81954 16.6511 6.81954C16.5393 6.81954 16.4363 6.85968 16.3613 6.93263L14.9036 8.35061V7.25825C14.9036 6.97794 14.6693 6.75 14.3811 6.75C14.0929 6.75 13.8586 6.97794 13.8586 7.25825V10.7351Z" fill="#FFE812"/>
</svg>
