<svg width="24" height="24" viewBox="0 0 24 24" fill="none" xmlns="http://www.w3.org/2000/svg">
<g clip-path="url(#clip0_637_1330)">
<path d="M14.1543 11.9989L22.459 3.70166C23.0543 3.10689 23.0584 2.14038 22.4671 1.54153C21.8769 0.941668 20.9141 0.939631 20.3198 1.53339L11.9989 9.84595L3.67906 1.5344C3.08479 0.940649 2.12199 0.941668 1.53177 1.54153C0.940527 2.14038 0.944576 3.10689 1.53987 3.70166L9.84558 11.9989L1.53885 20.2962C0.943564 20.891 0.939514 21.8575 1.53075 22.4564C1.82739 22.7578 2.21817 22.9075 2.60795 22.9075C2.99468 22.9075 3.38243 22.7588 3.67805 22.4635L11.9989 14.1509L20.3198 22.4635C20.6155 22.7588 21.0032 22.9075 21.3899 22.9075C21.7807 22.9075 22.1705 22.7578 22.4671 22.4564C23.0584 21.8575 23.0543 20.891 22.459 20.2962L14.1533 11.9989H14.1543Z" fill="#222222"/>
</g>
<defs>
<clipPath id="clip0_637_1330">
<rect width="21.8182" height="21.8182" fill="white" transform="translate(1.09082 1.09088)"/>
</clipPath>
</defs>
</svg>
