<svg width="36" height="36" viewBox="0 0 36 36" fill="none" xmlns="http://www.w3.org/2000/svg">
<path d="M4.4066 9.02429H31.5934C32.3698 9.02429 33 8.57152 33 8.01215C33 7.45277 32.3698 7 31.5934 7H4.4066C3.63016 7 3 7.45277 3 8.01215C3 8.57152 3.63016 9.02429 4.4066 9.02429Z" fill="#222222" stroke="#222222" stroke-width="2"/>
<path d="M31.5934 17.0243H4.4066C3.63016 17.0243 3 17.4771 3 18.0364C3 18.5958 3.63016 19.0486 4.4066 19.0486H31.5934C32.3698 19.0486 33 18.5958 33 18.0364C33 17.4771 32.3698 17.0243 31.5934 17.0243Z" fill="#222222" stroke="#222222" stroke-width="2"/>
<path d="M31.5934 27.0486H4.4066C3.63016 27.0486 3 27.5014 3 28.0607C3 28.6201 3.63016 29.0729 4.4066 29.0729H31.5934C32.3698 29.0729 33 28.6201 33 28.0607C33 27.5014 32.3698 27.0486 31.5934 27.0486Z" fill="#222222" stroke="#222222" stroke-width="2"/>
</svg>
