<svg width="1194" height="47" viewBox="0 0 1194 47" fill="none" xmlns="http://www.w3.org/2000/svg">
<g clip-path="url(#clip0_144_2426)">
<path d="M744.531 14.0805C749.859 14.1683 749.233 14.0903 754.541 13.8172C759.889 13.5442 771.036 13.0859 776.384 13.3492C798.442 14.4218 861.776 12.7641 883.932 12.6764C888.144 12.6569 892.415 12.7154 896.411 13.3492C898.703 13.71 916.549 13.8367 918.9 14.1098C925.756 14.9191 928.323 14.022 935.355 13.788C972.028 12.5691 1008.72 11.3502 1045.39 10.1411C1053.95 9.85832 1062.59 9.56578 1070.86 8.41516C1085.47 6.3772 1098.68 1.66744 1113.82 1.24815C1114.78 1.2189 1115.78 1.2189 1116.6 1.45292C1117.62 1.74545 1118.15 2.35002 1118.32 2.92533C1119.25 5.75313 1114.03 8.16164 1108.78 9.31226C1103.53 10.4629 1097.52 10.9992 1093.25 12.9201C1091.11 13.8757 1089.51 15.5139 1091.09 16.7133C1092.45 17.7372 1095.38 18.1857 1097.76 17.8639C1125.59 14.1585 1149.84 10.1118 1173.8 13.7977C1176.86 14.2658 1180.93 14.8313 1180.66 16.4208C1180.42 17.7274 1177.37 18.371 1174.76 18.5952C1166.77 19.2681 1156.35 17.6494 1148.26 17.9029C1140.17 18.1564 1128.02 21.4035 1127.41 22.6224C1126.81 23.8413 1143.34 22.1446 1157.74 21.6766C1161.87 21.5401 1182.03 22.6224 1186.18 22.6224C1189.98 22.6224 1193.76 25.4502 1189.96 26.6594C1186.16 27.8685 1156.47 27.7027 1139.74 28.2195C1137.64 28.2878 1135.41 28.3755 1133.76 29.0191C1132.12 29.6627 1131.57 31.0863 1133.25 31.7201C1146.22 31.4471 1159.19 31.1838 1172.16 30.9108C1174.96 30.8523 1177.94 30.8133 1180.33 31.5446C1182.72 32.2759 1183.97 34.0701 1182.05 35.0843C1180.95 35.6596 1179.27 35.8058 1177.7 35.9131C1162.95 36.976 1133.7 36.7127 1133.43 39.1017C1133.15 41.4907 1144.3 41.0519 1150.22 40.5351C1156.13 40.0183 1163.99 40.2621 1165.89 43.0996C1163.58 45.1376 1158.07 45.4984 1153.37 45.6154C1137.21 46.0347 1121.05 44.572 1104.89 44.9913C1092.17 45.3228 1070.58 44.3282 1059.2 41.4907C1054.21 40.2425 1030.37 39.482 1018.75 39.4625C979.726 39.3942 940.88 43.6067 901.916 42.5048C888.692 42.1343 849.141 41.1396 835.976 41.9197C829.531 42.3 779.479 43.0996 773.034 43.4604C761.026 44.1332 739.124 42.0562 727.057 42.3585C652.282 44.2502 577.586 39.6672 551.63 40.9836" stroke="#9C0B06" stroke-width="2.5" stroke-miterlimit="10" stroke-linecap="round" stroke-linejoin="round"/>
<path d="M467.237 42.3585C472.801 42.6316 478.325 41.832 483.908 41.6955C486.298 41.637 519.346 41.7052 521.736 41.6565C525.811 41.559 547.32 41.1104 551.297 40.6619" stroke="#9C0B06" stroke-width="2.5" stroke-miterlimit="10" stroke-linecap="round" stroke-linejoin="round"/>
<path d="M467.296 42.4559C455.346 43.3433 433.327 44.2306 421.318 43.5578C414.873 43.197 408.565 42.3974 402.12 42.0171C388.956 41.2371 305.66 42.2219 292.437 42.6022C253.473 43.7041 214.626 39.4819 175.603 39.5599C163.967 39.5794 140.146 40.3497 135.15 41.5881C123.769 44.4159 102.181 45.4203 89.4667 45.0887C73.3051 44.6694 57.1435 46.1418 40.9819 45.7128C36.2804 45.586 30.7756 45.235 28.464 43.197C30.3642 40.3595 38.2002 40.1157 44.1359 40.6325C50.052 41.1493 61.2182 41.5881 60.9244 39.1991C60.6501 36.8101 38.5724 34.4211 24.311 36.6151C12.4395 38.4385 2.44873 34.7331 2.44873 33.3485C2.44873 31.174 17.9443 32.9584 22.1365 32.2564C35.2617 30.0819 56.262 32.4514 61.0811 31.8078C65.9002 31.1642 62.1977 29.7601 60.5718 29.1068C58.9262 28.4632 56.693 28.3657 54.5969 28.3072C37.8476 27.7904 8.16896 27.9561 4.34894 26.747C0.548517 25.5379 4.32935 22.7101 8.12978 22.7101C12.2632 22.7101 32.4408 21.6277 36.5742 21.7642C50.9727 22.2323 68.7015 20.4088 68.0942 19.19C67.487 17.9711 54.303 16.1769 46.2124 15.9234C38.1218 15.6698 34.5173 16.5962 26.5246 15.9234C23.9192 15.7088 15.809 15.0555 15.5935 13.7489C15.3192 12.1692 25.6627 10.9503 28.7187 10.4823C52.6575 6.78664 68.7407 14.2559 96.5779 17.9613C98.9482 18.2734 101.906 17.8346 103.238 16.8107C104.825 15.6113 103.219 13.9732 101.084 13.0176C96.8129 11.1063 90.8184 10.5603 85.5488 9.40967C80.2791 8.25905 75.0878 5.85054 76.0085 3.02274C76.2044 2.43768 76.7138 1.84286 77.7324 1.55033C78.5552 1.31631 79.5739 1.31631 80.5142 1.34556C95.6571 1.77461 108.861 6.47461 123.475 8.51257C131.742 9.6632 140.381 9.95573 148.941 10.2385C185.614 11.4574 222.305 10.492 258.978 11.7109C266.01 11.9449 268.577 12.842 275.433 12.0327C277.764 11.7597 295.63 11.6329 297.922 11.2721C301.938 10.6383 376.223 10.5798 380.415 10.5993C402.591 10.6871 413.385 14.5192 435.462 13.4466C440.81 13.1833 451.957 13.6416 457.305 13.9146L467.531 13.8171C476.307 13.8561 515.702 13.8951 524.478 13.9342C526.575 13.9439 546.164 13.9537 548.221 13.7781C549.789 13.6416 551.317 13.3978 552.864 13.2223C556.273 12.842 559.799 12.803 563.305 12.764C568.105 12.7153 573.12 12.686 577.41 13.7586C580.701 14.5777 615.845 13.3296 619.43 13.7196C622.526 14.0512 631.654 12.9688 634.75 12.6275C647.875 11.1844 719.574 15.8844 732.777 14.6362C737.146 14.2267 741.573 13.5246 745.922 13.9634" stroke="#9C0B06" stroke-width="2.5" stroke-miterlimit="10" stroke-linecap="round" stroke-linejoin="round"/>
</g>
<defs>
<clipPath id="clip0_144_2426">
<rect width="1194" height="47" fill="white"/>
</clipPath>
</defs>
</svg>
