<svg width="130" height="130" viewBox="0 0 130 130" fill="none" xmlns="http://www.w3.org/2000/svg">
<rect width="130" height="130" fill="#D9D9D9"/>
<path d="M41.6808 69.0996V55.9056H45.4428C48.3948 55.9056 50.3928 56.8956 50.3928 59.7936C50.3928 62.5656 48.4128 63.8616 45.5148 63.8616H43.3548V69.0996H41.6808ZM43.3548 62.5116H45.3168C47.6208 62.5116 48.7368 61.6656 48.7368 59.7936C48.7368 57.8676 47.5668 57.2736 45.2268 57.2736H43.3548V62.5116ZM52.9274 69.0996V54.7896H54.5654V58.6956L54.5114 60.7116C55.4114 59.8296 56.4014 59.0916 57.7514 59.0916C59.8034 59.0916 60.7394 60.4236 60.7394 62.9076V69.0996H59.0834V63.1236C59.0834 61.2876 58.5254 60.5136 57.2294 60.5136C56.2394 60.5136 55.5374 61.0356 54.5654 62.0076V69.0996H52.9274ZM67.659 69.3516C65.247 69.3516 63.123 67.4616 63.123 64.2396C63.123 60.9636 65.247 59.0916 67.659 59.0916C70.053 59.0916 72.177 60.9636 72.177 64.2396C72.177 67.4616 70.053 69.3516 67.659 69.3516ZM67.659 67.9836C69.351 67.9836 70.485 66.4716 70.485 64.2396C70.485 61.9716 69.351 60.4596 67.659 60.4596C65.949 60.4596 64.815 61.9716 64.815 64.2396C64.815 66.4716 65.949 67.9836 67.659 67.9836ZM77.4503 69.3516C75.3623 69.3516 74.6783 68.0376 74.6783 66.0936V60.6576H73.2203V59.4336L74.7503 59.3256L74.9303 56.5716H76.3163V59.3256H78.9623V60.6576H76.3163V66.1296C76.3163 67.3176 76.6943 68.0196 77.8283 68.0196C78.1703 68.0196 78.6203 67.8756 78.9263 67.7496L79.2503 68.9736C78.7103 69.1716 78.0623 69.3516 77.4503 69.3516ZM84.6571 69.3516C82.2451 69.3516 80.1211 67.4616 80.1211 64.2396C80.1211 60.9636 82.2451 59.0916 84.6571 59.0916C87.0511 59.0916 89.1751 60.9636 89.1751 64.2396C89.1751 67.4616 87.0511 69.3516 84.6571 69.3516ZM84.6571 67.9836C86.3491 67.9836 87.4831 66.4716 87.4831 64.2396C87.4831 61.9716 86.3491 60.4596 84.6571 60.4596C82.9471 60.4596 81.8131 61.9716 81.8131 64.2396C81.8131 66.4716 82.9471 67.9836 84.6571 67.9836Z" fill="#222222"/>
</svg>
