<svg width="100" height="100" viewBox="0 0 100 100" fill="none" xmlns="http://www.w3.org/2000/svg">
<rect width="100" height="100" rx="50" fill="#DDDDDD"/>
<path d="M50.0129 53.4783C50.0129 53.4783 54.5469 53.7392 59.4799 50.7221C60.4444 50.1323 61.6854 50.0921 62.6568 50.6723C66.0232 52.683 73.1701 58.1769 74 68.9352C74 68.9352 74 72.9733 69.6386 73.9831H31.4936C31.4936 73.9831 26.5711 74.4879 26.0259 69.9449C26.0259 69.9449 24.9094 57.8965 37.3387 50.6716C38.2913 50.1179 39.5084 50.1263 40.4494 50.6967C42.339 51.8422 45.9388 53.6081 50.0126 53.4779L50.0129 53.4783Z" fill="white"/>
<path d="M49.9999 47.6778C56.4732 47.6778 61.7208 42.825 61.7208 36.8389C61.7208 30.8527 56.4732 26 49.9999 26C43.5266 26 38.279 30.8527 38.279 36.8389C38.279 42.825 43.5266 47.6778 49.9999 47.6778Z" fill="white"/>
</svg>
