<svg width="32" height="32" viewBox="0 0 32 32" fill="none" xmlns="http://www.w3.org/2000/svg">
<g clip-path="url(#clip0_192_434)">
<path d="M31.5334 29.2771L21.999 19.7334C23.5827 17.665 24.5341 15.0861 24.5341 12.2787C24.5341 5.4976 19.0419 0 12.2672 0C5.49248 0 0 5.4976 0 12.279C0 19.0605 5.49216 24.5584 12.2672 24.5584C15.0877 24.5584 17.6781 23.5955 19.7501 21.9939L29.28 31.5331C29.9024 32.1562 30.9114 32.1562 31.5334 31.5331C32.1558 30.9101 32.1558 29.8998 31.5334 29.2771ZM2.06848 12.279C2.06848 6.64128 6.63456 2.07072 12.2669 2.07072C17.8992 2.07072 22.4656 6.64128 22.4656 12.279C22.4656 17.9168 17.8995 22.4877 12.2669 22.4877C6.63424 22.4877 2.06848 17.9171 2.06848 12.279Z" fill="#111111"/>
</g>
<defs>
<clipPath id="clip0_192_434">
<rect width="32" height="32" fill="white"/>
</clipPath>
</defs>
</svg>
