<svg width="26" height="26" viewBox="0 0 26 26" fill="none" xmlns="http://www.w3.org/2000/svg">
<path d="M17.6306 3C15.8607 3 14.2006 3.73785 13 5.04123C11.7994 3.73785 10.1384 3 8.36841 3C4.85706 3 2 5.91956 2 9.50766C2 12.3953 3.69324 15.4726 7.03052 18.6549C9.45923 20.9697 11.9155 22.5166 12.1869 22.6853L12.4314 22.8376C12.6028 22.9435 12.7992 23 13 23C13.2008 23 13.3981 22.9435 13.5676 22.8376L13.8123 22.6862C14.0845 22.5175 16.5399 20.9706 18.9695 18.6558C22.3068 15.4745 24 12.3971 24 9.50858C24 5.92047 21.1429 3 17.6306 3Z" fill="#9C0B06"/>
</svg>
